<svg width="24" height="24" viewBox="0 0 24 24" fill="currentColor" xmlns="http://www.w3.org/2000/svg">
<mask id="mask0_2092_1002" style="mask-type:alpha" maskUnits="userSpaceOnUse" x="0" y="0" width="24" height="24">
<rect width="24" height="24" fill="currentColor"/>
</mask>
<g mask="url(#mask0_2092_1002)">
<path d="M5 21C4.16667 21 3.45833 20.7083 2.875 20.125C2.29167 19.5417 2 18.8333 2 18C2 17.1667 2.29167 16.4583 2.875 15.875C3.45833 15.2917 4.16667 15 5 15H19C19.8333 15 20.5417 15.2917 21.125 15.875C21.7083 16.4583 22 17.1667 22 18C22 18.8333 21.7083 19.5417 21.125 20.125C20.5417 20.7083 19.8333 21 19 21H5ZM5 19H19C19.2833 19 19.5208 18.9042 19.7125 18.7125C19.9042 18.5208 20 18.2833 20 18C20 17.7167 19.9042 17.4792 19.7125 17.2875C19.5208 17.0958 19.2833 17 19 17H5C4.71667 17 4.47917 17.0958 4.2875 17.2875C4.09583 17.4792 4 17.7167 4 18C4 18.2833 4.09583 18.5208 4.2875 18.7125C4.47917 18.9042 4.71667 19 5 19ZM10 13C9.71667 13 9.47917 12.9042 9.2875 12.7125C9.09583 12.5208 9 12.2833 9 12V4C9 3.71667 9.09583 3.47917 9.2875 3.2875C9.47917 3.09583 9.71667 3 10 3H18C18.2833 3 18.5208 3.09583 18.7125 3.2875C18.9042 3.47917 19 3.71667 19 4V12C19 12.2833 18.9042 12.5208 18.7125 12.7125C18.5208 12.9042 18.2833 13 18 13H10ZM11 11H17V5H11V11ZM2.95 10.95C2.68333 10.95 2.45833 10.8542 2.275 10.6625C2.09167 10.4708 2 10.2417 2 9.975C2 9.70833 2.09583 9.48333 2.2875 9.3C2.47917 9.11667 2.70833 9.025 2.975 9.025H5.975C6.24167 9.025 6.46667 9.11667 6.65 9.3C6.83333 9.48333 6.925 9.70833 6.925 9.975C6.925 10.2417 6.83333 10.4708 6.65 10.6625C6.46667 10.8542 6.24167 10.95 5.975 10.95H2.95ZM13 8H15.025C15.3083 8 15.5417 7.90417 15.725 7.7125C15.9083 7.52083 16 7.28333 16 7C16 6.71667 15.9083 6.48333 15.725 6.3C15.5417 6.11667 15.3083 6.025 15.025 6.025H12.975C12.6917 6.025 12.4583 6.11667 12.275 6.3C12.0917 6.48333 12 6.71667 12 7C12 7.28333 12.0958 7.52083 12.2875 7.7125C12.4792 7.90417 12.7167 8 13 8ZM4.975 8C4.69167 8 4.45833 7.90417 4.275 7.7125C4.09167 7.52083 4 7.28333 4 7C4 6.71667 4.09583 6.48333 4.2875 6.3C4.47917 6.11667 4.71667 6.025 5 6.025H5.95C6.23333 6.025 6.46667 6.11667 6.65 6.3C6.83333 6.48333 6.925 6.71667 6.925 7C6.925 7.28333 6.83333 7.52083 6.65 7.7125C6.46667 7.90417 6.23333 8 5.95 8H4.975Z" fill="currentColor"/>
</g>
</svg>
