<svg width="24" height="24" viewBox="0 0 24 24" fill="currentColor" xmlns="http://www.w3.org/2000/svg">
<mask id="mask0_automation" style="mask-type:alpha" maskUnits="userSpaceOnUse" x="0" y="0" width="24" height="24">
<rect width="24" height="24" fill="currentColor"/>
</mask>
<g mask="url(#mask0_automation)">
<!-- Workflow nodes -->
<circle cx="5" cy="12" r="2.5" fill="currentColor"/>
<circle cx="12" cy="6" r="2.5" fill="currentColor"/>
<circle cx="12" cy="18" r="2.5" fill="currentColor"/>
<circle cx="19" cy="12" r="2.5" fill="currentColor"/>
<!-- Connecting lines with arrows -->
<path d="M7.5 12H9.5L8.5 11L9.5 12L8.5 13Z" fill="currentColor"/>
<path d="M12 8.5V10.5L11 9.5L12 10.5L13 9.5Z" fill="currentColor"/>
<path d="M12 13.5V15.5L11 14.5L12 15.5L13 14.5Z" fill="currentColor"/>
<path d="M14.5 12H16.5L15.5 11L16.5 12L15.5 13Z" fill="currentColor"/>
<!-- Automation symbol in center -->
<rect x="10.5" y="10.5" width="3" height="3" rx="0.5" fill="currentColor"/>
<path d="M11.5 11.5L12.5 12.5M12.5 11.5L11.5 12.5" stroke="white" strokeWidth="0.5" strokeLinecap="round"/>
</g>
</svg> 