<svg width="20" height="20" viewBox="0 0 20 20" fill="currentColor" xmlns="http://www.w3.org/2000/svg">
<path d="M11.4288 19.0475V11.4282H7.61916V19.0475C7.61916 19.5735 7.19276 19.9999 6.66676 19.9999C6.14076 19.9999 5.71436 19.5735 5.71436 19.0475V11.4282C5.71436 10.9231 5.91518 10.4387 6.2724 10.0815C6.62962 9.72427 7.11397 9.52344 7.61916 9.52344H11.4288C11.934 9.52344 12.4183 9.72427 12.7755 10.0815C13.1328 10.4387 13.3336 10.9231 13.3336 11.4282V19.0475C13.3336 19.5735 12.9072 19.9999 12.3812 19.9999C11.8552 19.9999 11.4288 19.5735 11.4288 19.0475Z" fill="currentColor"/>
<path d="M17.1433 8.57072L17.1377 8.46748C17.1265 8.36466 17.0986 8.26409 17.0549 8.16985C16.9966 8.0442 16.9114 7.93281 16.8056 7.84339L16.801 7.83874L10.1388 2.12896V2.12989C9.98833 2.00271 9.80266 1.92573 9.60774 1.90853L9.52403 1.90481C9.29896 1.90481 9.08115 1.98461 8.90925 2.12989L8.90832 2.12896L2.24708 7.83874L2.24243 7.84339C2.13664 7.93281 2.05147 8.0442 1.99316 8.16985C1.9349 8.29544 1.9048 8.43227 1.90481 8.57072V17.1424C1.90481 17.395 2.00522 17.6381 2.18383 17.8167C2.36242 17.9951 2.60473 18.0948 2.85721 18.0948H16.1909C16.4433 18.0948 16.6856 17.9951 16.8642 17.8167C17.0428 17.6381 17.1433 17.395 17.1433 17.1424V8.57072ZM19.0481 17.1424C19.0481 17.9001 18.7468 18.6276 18.211 19.1634C17.6752 19.6991 16.9485 19.9996 16.1909 19.9996H2.85721C2.09955 19.9996 1.37288 19.6991 0.837073 19.1634C0.301242 18.6276 0 17.9001 0 17.1424V8.57072C-3.27434e-06 8.15537 0.0902758 7.7449 0.265073 7.36812C0.439984 6.99116 0.695488 6.65701 1.01286 6.38874L7.67503 0.678961L7.67968 0.675241L7.87965 0.520847C8.35938 0.183184 8.9333 0 9.52403 0L9.77608 0.011161C10.2769 0.0555074 10.7572 0.231448 11.1684 0.520847L11.3684 0.675241L11.373 0.678961L18.0352 6.38874L18.1515 6.49198C18.4153 6.74085 18.6299 7.03824 18.783 7.36812C18.9578 7.7449 19.0481 8.15537 19.0481 8.57072V17.1424Z" fill="currentColor"/>
</svg>
