<svg width="25" height="24" viewBox="0 0 25 24" fill="currentColor" xmlns="http://www.w3.org/2000/svg">
<mask id="mask0_2092_996" style="mask-type:alpha" maskUnits="userSpaceOnUse" x="0" y="0" width="25" height="24">
<rect width="25" height="24" fill="currentColor"/>
</mask>
<g mask="url(#mask0_2092_996)">
<path d="M5.00501 21C4.45363 21 3.98162 20.815 3.58897 20.4451C3.19632 20.0752 3 19.6306 3 19.1111V5.88889C3 5.36944 3.19632 4.92477 3.58897 4.55486C3.98162 4.18495 4.45363 4 5.00501 4H19.9925C20.5439 4 21.0159 4.18495 21.4085 4.55486C21.8012 4.92477 21.9975 5.36944 21.9975 5.88889V9.25H19.9925V5.88889H5.00501V19.1111H19.9925V16.75H21.9975V19.1111C21.9975 19.6306 21.8012 20.0752 21.4085 20.4451C21.0159 20.815 20.5439 21 19.9925 21H5.00501ZM14.9774 17.2222C14.4261 17.2222 13.9541 17.0373 13.5614 16.6674C13.1688 16.2975 12.9724 15.8528 12.9724 15.3333V10.6667C12.9724 10.1472 13.1688 9.70255 13.5614 9.33264C13.9541 8.96273 14.4261 8.77778 14.9774 8.77778H20.995C21.5464 8.77778 22.0184 8.96273 22.411 9.33264C22.8037 9.70255 23 10.1472 23 10.6667V15.3333C23 15.8528 22.8037 16.2975 22.411 16.6674C22.0184 17.0373 21.5464 17.2222 20.995 17.2222H14.9774ZM20.995 15.3333V10.6667H14.9774V15.3333H20.995Z" fill="currentColor"/>
</g>
</svg>
