<svg width="24" height="24" viewBox="0 0 24 24" fill="currentColor" xmlns="http://www.w3.org/2000/svg">
<mask id="mask0_2082_987" style="mask-type:alpha" maskUnits="userSpaceOnUse" x="0" y="0" width="24" height="24">
<rect width="24" height="24" fill="currentColor"/>
</mask>
<g mask="url(#mask0_2082_987)">
<path d="M12 22C9.2037 22 6.83796 21.5694 4.90278 20.7083C2.96759 19.8472 2 18.7963 2 17.5556V6.44444C2 5.22222 2.97685 4.17593 4.93056 3.30556C6.88426 2.43519 9.24074 2 12 2C14.7593 2 17.1157 2.43519 19.0694 3.30556C21.0231 4.17593 22 5.22222 22 6.44444V17.5556C22 18.7963 21.0324 19.8472 19.0972 20.7083C17.162 21.5694 14.7963 22 12 22ZM12 8.69444C13.6481 8.69444 15.3056 8.45833 16.9722 7.98611C18.6389 7.51389 19.5741 7.00926 19.7778 6.47222C19.5741 5.93519 18.6435 5.42593 16.9861 4.94444C15.3287 4.46296 13.6667 4.22222 12 4.22222C10.3148 4.22222 8.66204 4.45833 7.04167 4.93056C5.4213 5.40278 4.48148 5.91667 4.22222 6.47222C4.48148 7.02778 5.4213 7.53704 7.04167 8C8.66204 8.46296 10.3148 8.69444 12 8.69444ZM12 14.2222C12.7778 14.2222 13.5278 14.1852 14.25 14.1111C14.9722 14.037 15.662 13.9306 16.3194 13.7917C16.9769 13.6528 17.5972 13.4815 18.1806 13.2778C18.7639 13.0741 19.2963 12.8426 19.7778 12.5833V9.25C19.2963 9.50926 18.7639 9.74074 18.1806 9.94445C17.5972 10.1481 16.9769 10.3194 16.3194 10.4583C15.662 10.5972 14.9722 10.7037 14.25 10.7778C13.5278 10.8519 12.7778 10.8889 12 10.8889C11.2222 10.8889 10.463 10.8519 9.72222 10.7778C8.98148 10.7037 8.28241 10.5972 7.625 10.4583C6.96759 10.3194 6.35185 10.1481 5.77778 9.94445C5.2037 9.74074 4.68519 9.50926 4.22222 9.25V12.5833C4.68519 12.8426 5.2037 13.0741 5.77778 13.2778C6.35185 13.4815 6.96759 13.6528 7.625 13.7917C8.28241 13.9306 8.98148 14.037 9.72222 14.1111C10.463 14.1852 11.2222 14.2222 12 14.2222ZM12 19.7778C12.8519 19.7778 13.7176 19.713 14.5972 19.5833C15.4769 19.4537 16.287 19.2824 17.0278 19.0694C17.7685 18.8565 18.3889 18.6157 18.8889 18.3472C19.3889 18.0787 19.6852 17.8056 19.7778 17.5278V14.8056C19.2963 15.0648 18.7639 15.2963 18.1806 15.5C17.5972 15.7037 16.9769 15.875 16.3194 16.0139C15.662 16.1528 14.9722 16.2593 14.25 16.3333C13.5278 16.4074 12.7778 16.4444 12 16.4444C11.2222 16.4444 10.463 16.4074 9.72222 16.3333C8.98148 16.2593 8.28241 16.1528 7.625 16.0139C6.96759 15.875 6.35185 15.7037 5.77778 15.5C5.2037 15.2963 4.68519 15.0648 4.22222 14.8056V17.5556C4.31482 17.8333 4.60648 18.1019 5.09722 18.3611C5.58796 18.6204 6.2037 18.8565 6.94445 19.0694C7.68519 19.2824 8.5 19.4537 9.38889 19.5833C10.2778 19.713 11.1481 19.7778 12 19.7778Z" fill="currentColor"/>
</g>
</svg>
