<svg width="20" height="15" viewBox="0 0 20 15" fill="currentColor" xmlns="http://www.w3.org/2000/svg">
<path d="M19 8.48576H17C16.7167 8.48576 16.4792 8.39129 16.2875 8.20236C16.0958 8.01342 16 7.7793 16 7.5C16 7.2207 16.0958 6.98658 16.2875 6.79765C16.4792 6.60871 16.7167 6.51424 17 6.51424H19C19.2833 6.51424 19.5208 6.60871 19.7125 6.79765C19.9042 6.98658 20 7.2207 20 7.5C20 7.7793 19.9042 8.01342 19.7125 8.20236C19.5208 8.39129 19.2833 8.48576 19 8.48576ZM14.6 12.2317C14.7667 12.0016 14.9833 11.8702 15.25 11.8373C15.5167 11.8045 15.7667 11.8702 16 12.0345L17.6 13.2174C17.8333 13.3817 17.9667 13.5953 18 13.8582C18.0333 14.121 17.9667 14.3675 17.8 14.5975C17.6333 14.8275 17.4167 14.9589 17.15 14.9918C16.8833 15.0246 16.6333 14.9589 16.4 14.7946L14.8 13.6117C14.5667 13.4474 14.4333 13.2338 14.4 12.971C14.3667 12.7081 14.4333 12.4617 14.6 12.2317ZM17.6 1.78258L16 2.9655C15.7667 3.12979 15.5167 3.19551 15.25 3.16265C14.9833 3.12979 14.7667 2.99836 14.6 2.76835C14.4333 2.53834 14.3667 2.29189 14.4 2.02903C14.4333 1.76616 14.5667 1.55257 14.8 1.38828L16.4 0.205367C16.6333 0.0410734 16.8833 -0.024644 17.15 0.00821468C17.4167 0.0410734 17.6333 0.172508 17.8 0.402519C17.9667 0.63253 18.0333 0.87897 18 1.14184C17.9667 1.40471 17.8333 1.61829 17.6 1.78258ZM3 10.4573H2C1.45 10.4573 0.979167 10.2642 0.5875 9.87815C0.195833 9.49206 0 9.02793 0 8.48576V6.51424C0 5.97207 0.195833 5.50794 0.5875 5.12185C0.979167 4.73576 1.45 4.54272 2 4.54272H6L9.475 2.47262C9.80833 2.27547 10.1458 2.27547 10.4875 2.47262C10.8292 2.66977 11 2.95728 11 3.33516V11.6648C11 12.0427 10.8292 12.3302 10.4875 12.5274C10.1458 12.7245 9.80833 12.7245 9.475 12.5274L6 10.4573H5H3.93106C3.64772 10.4573 3.30327 10.4573 3.30327 10.4573H3ZM9 9.91511V5.08488L6.55 6.51424H2V8.48576H6.55L9 9.91511Z" fill="currentColor"/>
</svg>
