<svg width="24" height="24" viewBox="0 0 24 24" fill="currentColor" xmlns="http://www.w3.org/2000/svg">
<mask id="mask0_2079_1126" style="mask-type:alpha" maskUnits="userSpaceOnUse" x="0" y="0" width="24" height="24">
<rect width="24" height="24" fill="currentColor"/>
</mask>
<g mask="url(#mask0_2079_1126)">
<path d="M4.6252 22C4.34186 22 4.09603 21.8958 3.8877 21.6875C3.67936 21.4792 3.5752 21.2333 3.5752 20.95V18.325C3.5752 16.825 4.04186 15.5 4.9752 14.35C5.90853 13.2 7.10853 12.4667 8.5752 12.15C7.90853 12.6167 7.39186 13.2042 7.0252 13.9125C6.65853 14.6208 6.4752 15.3833 6.4752 16.2V20.95C6.4752 21.1333 6.5002 21.3167 6.5502 21.5C6.6002 21.6833 6.68353 21.85 6.8002 22H4.6252ZM9.3002 22C9.01686 22 8.77103 21.8958 8.5627 21.6875C8.35436 21.4792 8.2502 21.2333 8.2502 20.95V16.2C8.2502 15.0333 8.6627 14.0417 9.4877 13.225C10.3127 12.4083 11.3085 12 12.4752 12H16.2002C17.3669 12 18.3585 12.4083 19.1752 13.225C19.9919 14.0417 20.4002 15.0333 20.4002 16.2V17.8C20.4002 18.9667 19.9919 19.9583 19.1752 20.775C18.3585 21.5917 17.3669 22 16.2002 22H9.3002ZM12.0002 9.9C10.9002 9.9 9.96686 9.51667 9.2002 8.75C8.43353 7.98333 8.0502 7.05 8.0502 5.95C8.0502 4.85 8.43353 3.91667 9.2002 3.15C9.96686 2.38333 10.9002 2 12.0002 2C13.1002 2 14.0335 2.38333 14.8002 3.15C15.5669 3.91667 15.9502 4.85 15.9502 5.95C15.9502 7.05 15.5669 7.98333 14.8002 8.75C14.0335 9.51667 13.1002 9.9 12.0002 9.9Z" fill="currentColor"/>
</g>
</svg>
